<svg id="efhkzek0rphv1" xmlns="http://www.w3.org/2000/svg" xmlns:xlink="http://www.w3.org/1999/xlink" viewBox="0 0 627.769000 550.450000" shape-rendering="geometricPrecision" text-rendering="geometricPrecision"><style><![CDATA[#efhkzek0rphv2 {animation: efhkzek0rphv2_c_o 3000ms linear infinite normal forwards}@keyframes efhkzek0rphv2_c_o { 0% {opacity: 1} 16.666667% {opacity: 0} 33.333333% {opacity: 1} 50% {opacity: 0} 66.666667% {opacity: 1} 83.333333% {opacity: 0} 100% {opacity: 1} }#efhkzek0rphv6 {animation: efhkzek0rphv6_c_o 3000ms linear infinite normal forwards}@keyframes efhkzek0rphv6_c_o { 0% {opacity: 1} 16.666667% {opacity: 0} 33.333333% {opacity: 1} 50% {opacity: 0} 66.666667% {opacity: 1} 83.333333% {opacity: 0} 100% {opacity: 1} }#efhkzek0rphv8 {animation: efhkzek0rphv8_c_o 3000ms linear infinite normal forwards}@keyframes efhkzek0rphv8_c_o { 0% {opacity: 1} 16.666667% {opacity: 0} 33.333333% {opacity: 1} 50% {opacity: 0} 66.666667% {opacity: 1} 83.333333% {opacity: 0} 100% {opacity: 1} }]]></style><g id="efhkzek0rphv2"><g id="efhkzek0rphv3"><polygon id="efhkzek0rphv4" points="93.581000,485.725000 535.637000,485.725000 314.611000,102.892000 93.581000,485.725000" fill="none" stroke="none" stroke-width="1"/><path id="efhkzek0rphv5" d="M590.194000,472.222000L353.581000,62.393000C345.542000,48.469000,330.686000,39.892000,314.609000,39.892000C298.532000,39.892000,283.678000,48.469000,275.639000,62.391000L39.021000,472.222000C35.001000,479.184000,32.992000,486.953000,32.992000,494.722000C32.992000,502.492000,35.001000,510.261000,39.021000,517.222000C47.060000,531.147000,61.916000,539.724000,77.993000,539.724000L551.225000,539.724000C567.299000,539.724000,582.157000,531.147000,590.196000,517.222000C594.216000,510.261000,596.225000,502.493000,596.223000,494.723000C596.223000,486.955000,594.213000,479.185000,590.194000,472.222000Z" fill="rgb(237,23,31)" stroke="none" stroke-width="1"/></g></g><g id="efhkzek0rphv6"><polygon id="efhkzek0rphv7" points="93.580000,485.725000 314.610000,102.892000 535.635000,485.725000 93.580000,485.725000" fill="rgb(254,184,47)" stroke="none" stroke-width="1"/></g><g id="efhkzek0rphv8"><circle id="efhkzek0rphv9" r="27.247000" transform="matrix(1 0 0 1 314.60700000000003 436.29399999999998)" fill="rgb(0,0,0)" stroke="none" stroke-width="1"/><path id="efhkzek0rphv10" d="M314.608000,192.817000C297.634000,192.817000,286.608000,204.088000,286.980000,215.905000C287.253000,224.492000,288.238000,253.454000,289.907000,272.535000L298.130000,364.179000C299.442000,375.326000,301.332000,383.530000,303.802000,388.871000C305.999000,393.625000,309.600000,396.229000,314.608000,396.725000C319.616000,396.230000,323.218000,393.625000,325.414000,388.871000C327.883000,383.529000,329.772000,375.326000,331.085000,364.179000L339.310000,272.535000C340.980000,253.454000,341.964000,224.492000,342.236000,215.905000C342.580000,204.974000,331.582000,192.817000,314.608000,192.817000Z" fill="rgb(0,0,0)" stroke="none" stroke-width="1"/></g></svg>